# xmcd CD database file
#
# Track frame offsets:
#	150
#	15285
#	32289
#	51619
#	68088
#	86229
#	102475
#	120563
#	136564
#	162285
#	180808
#	203476
#	220992
#	242459
#	260321
#	285434
#	302901
#	318781
#	339114
#
# Disc length: 4530 seconds
#
# Revision: 2
# Processed by: cddbd v1.4b41PL1 Copyright (c) Steve Scherf et al.
# Submitted via: Feurio! 1.50.2ß - http://www.feurio.com
#
DISCID=ef11b013
DTITLE=??? - One Shot 80  Volume 1
DYEAR=1900
DGENRE=
TTITLE0=01 - The Buggles - Video Killed The Radio Star
TTITLE1=02 - Kajagoogoo - Too Shy
TTITLE2=03 - Heaven 17 - Let Me Go
TTITLE3=04 - Industy - State of the Nation
TTITLE4=05 - Wang Chung - Dance Hall Days
TTITLE5=06 - Belouis Some - Imagination
TTITLE6=07 - Freur - Doot Doot
TTITLE7=08 - ABC - The Look of Love
TTITLE8=09 - Mr. Mister - Broken Wings
TTITLE9=10 - PHD - I Won't Let You Down
TTITLE10=11 - Indeep - Last Night a D.J. Saved My Life
TTITLE11=12 - Quarterflash - Harden My Heart
TTITLE12=13 - Alphaville - Big In Japan
TTITLE13=14 - Fox the Fox - Precious Little Diamond
TTITLE14=15 - Russ Ballard - Voices
TTITLE15=16 - Nena - 99 Luft Balloons
TTITLE16=17 - Johnny Hates - Shattered Dreams
TTITLE17=18 - Nik Kershaw - Would'n it Be Good
TTITLE18=19 - Nikka Costa - On My Own
EXTD=
EXTT0=
EXTT1=
EXTT2=
EXTT3=
EXTT4=
EXTT5=
EXTT6=
EXTT7=
EXTT8=
EXTT9=
EXTT10=
EXTT11=
EXTT12=
EXTT13=
EXTT14=
EXTT15=
EXTT16=
EXTT17=
EXTT18=
PLAYORDER=
